<svg width="18" height="18" viewBox="0 0 18 18" fill="none" xmlns="http://www.w3.org/2000/svg">
<path d="M15.0959 7.5C14.9593 7.5 14.5017 7.50469 14.3727 7.51406L11.7651 7.59375C11.7516 7.59472 11.7381 7.59129 11.7261 7.58384C11.7141 7.5764 11.7041 7.56522 11.6972 7.55156L6.49091 0.166875C6.45934 0.118105 6.41905 0.0779232 6.37285 0.0491098C6.32665 0.0202965 6.27563 0.00354003 6.22333 0H5.14293L8.07595 7.54688C8.08295 7.56415 8.08597 7.58325 8.08473 7.6023C8.08348 7.62135 8.07801 7.6397 8.06885 7.65554C8.05969 7.67138 8.04716 7.68417 8.03249 7.69264C8.01781 7.70112 8.0015 7.70501 7.98515 7.70391L3.09584 7.78828C3.04497 7.79008 2.99444 7.77786 2.94837 7.75261C2.90229 7.72736 2.86197 7.6898 2.83067 7.64297L1.34407 5.53359C1.22353 5.35078 0.997731 5.25234 0.801259 5.25234H0.0434959C-0.00833419 5.25234 -0.000700304 5.30906 0.0133621 5.36625L0.8105 8.71406C0.870756 8.89336 0.870756 9.09258 0.8105 9.27187L0.0125585 12.6094C-0.0111467 12.7008 -0.0083342 12.75 0.0836742 12.75H0.80367C1.13072 12.75 1.17532 12.7003 1.34246 12.4547L2.85719 10.3125C2.88876 10.266 2.92914 10.2287 2.97515 10.2035C3.02116 10.1783 3.07154 10.1659 3.12236 10.1672L7.97108 10.2938C7.98874 10.2942 8.00603 10.2997 8.02145 10.3097C8.03687 10.3198 8.04996 10.334 8.05959 10.3513C8.06921 10.3686 8.07507 10.3884 8.07666 10.4089C8.07825 10.4294 8.07552 10.4501 8.06872 10.4691L5.14293 18H6.21328C6.26548 17.9965 6.3164 17.9797 6.36253 17.951C6.40866 17.9223 6.44889 17.8822 6.48047 17.8336L11.6976 10.4531C11.7133 10.425 11.778 10.4109 11.8057 10.4109L14.3731 10.4906C14.5057 10.5 14.9593 10.5047 15.0963 10.5047C16.875 10.5047 18 9.93422 18 9C18 8.06578 16.8798 7.5 15.0959 7.5Z" fill="#FDFCF8" fill-opacity="0.8"/>
</svg>
